<?xml version="1.0" encoding="utf-8"?>
<svg viewBox="0 0 40 40" width="40px" height="40px" style="enable-background:new 0 0 40 40;" xmlns="http://www.w3.org/2000/svg">
  <defs>
    <style type="text/css">
      .st0{fill:#FFFFFF;}
      .st1{fill:#9146FF;}
    </style>
  </defs>
  <g transform="matrix(0.016667000949382782, 0, 0, 0.014285999350249769, -7.105427357601002e-15, 3.552713678800501e-15)">
    <polygon class="st0" points="2200,1300 1800,1700 1400,1700 1050,2050 1050,1700 600,1700 600,200 2200,200 &#9;"/>
    <g>
      <g id="Layer_1-2">
        <path class="st1" d="M500,0L0,500v1800h600v500l500-500h400l900-900V0H500z M2200,1300l-400,400h-400l-350,350v-350H600V200h1600 V1300z"/>
        <rect x="1700" y="550" class="st1" width="200" height="600"/>
        <rect x="1150" y="550" class="st1" width="200" height="600"/>
      </g>
    </g>
  </g>
</svg>